<svg width="94" height="79" viewBox="0 0 94 79" fill="none" xmlns="http://www.w3.org/2000/svg">
<path d="M8.5666 12.0136C7.70824 14.7943 9.14402 17.7658 11.856 18.8213C9.07533 17.9629 6.10392 19.3987 5.04842 22.1107C5.90678 19.33 4.47099 16.3586 1.75898 15.3031C4.53969 16.1614 7.51109 14.7256 8.5666 12.0136Z" fill="#D9D6FE"/>
<path d="M6.79989 53.9289C7.47772 55.7467 9.44476 56.7319 11.3065 56.1862C9.48867 56.864 8.5034 58.831 9.04917 60.6927C8.37134 58.875 6.4043 57.8897 4.5426 58.4355C6.36039 57.7576 7.34566 55.7906 6.79989 53.9289Z" fill="#D9D6FE"/>
<path d="M45.6276 2.25266C45.4006 4.17939 46.7008 5.95407 48.6063 6.31853C46.6796 6.09162 44.9049 7.3918 44.5404 9.29731C44.7674 7.37058 43.4672 5.59589 41.5617 5.23143C43.4884 5.45835 45.2631 4.15816 45.6276 2.25266Z" fill="#D9D6FE"/>
<path d="M4.59054 38.8817C4.2941 39.8029 4.75968 40.7965 5.6572 41.1582C4.73606 40.8618 3.7424 41.3274 3.38068 42.2249C3.67712 41.3038 3.21154 40.3101 2.31402 39.9484C3.23516 40.2448 4.22882 39.7792 4.59054 38.8817Z" fill="#D9D6FE"/>
<path d="M42.1909 49.314C41.8944 50.2352 42.36 51.2288 43.2575 51.5905C42.3364 51.2941 41.3427 51.7597 40.981 52.6572C41.2775 51.7361 40.8119 50.7424 39.9144 50.3807C40.8355 50.6771 41.8292 50.2116 42.1909 49.314Z" fill="#D9D6FE"/>
<path d="M37.9179 12.5685C37.6215 13.4897 38.0871 14.4834 38.9846 14.8451C38.0634 14.5486 37.0698 15.0142 36.7081 15.9117C37.0045 14.9906 36.5389 13.9969 35.6414 13.6352C36.5626 13.9317 37.5562 13.4661 37.9179 12.5685Z" fill="#D9D6FE"/>
<g clip-path="url(#clip0_10131_11)">
<path d="M27.015 43.2749C27.015 43.2749 27.353 42.3393 28.0213 40.4305C28.6502 38.6254 30.2588 33.9524 30.1282 31.6677C29.787 25.6629 23.5825 21.2697 21.0227 15.018C19.6201 11.5949 20.1862 10.5289 19.3513 10.2631C18.5163 9.99739 16.3402 15.9598 19.2821 20.9961C19.2821 20.9961 16.5776 20.6061 16.1908 21.386C15.804 22.1659 17.4566 23.787 18.845 24.4034C18.845 24.4034 15.51 25.449 15.3858 26.6047C15.2615 27.7604 18.0352 28.6786 19.3167 28.773C19.3167 28.773 17.26 29.685 17.3166 30.5859C17.4015 31.9727 20.4472 31.9712 20.4472 31.9712C20.4472 31.9712 19.1217 32.6457 19.3465 33.2951C19.6453 34.1788 22.0353 34.3423 22.0353 34.3423C22.0353 34.3423 21.257 36.7464 24.3026 37.1317C24.3026 37.1317 23.9158 39.05 26.2822 39.1144C26.2822 39.1144 26.7414 40.2151 26.6061 41.1396C26.4709 42.0642 26.647 43.1711 27.015 43.2749Z" fill="#EBEBEB"/>
<path d="M27.3074 40.6317C27.3129 40.4096 27.2626 40.1895 27.1611 39.9918C26.8938 39.3833 26.6894 38.627 27.3058 37.976V38.0877C26.5196 37.7528 26.1721 36.9021 26.8875 35.943C27.069 35.6973 27.2738 35.4698 27.4992 35.2637L27.5495 35.4823C24.573 35.9272 24.7523 34.5388 27.224 32.6976L27.2822 32.9979C24.1375 33.6567 23.2255 33.0262 26.2397 30.0985L26.301 30.3909C26.0792 30.4048 25.8566 30.3819 25.6422 30.3233C24.3042 29.9648 24.584 28.4522 25.0038 27.1078C25.301 26.1393 25.2554 25.1518 24.8057 24.427C24.3689 23.7309 23.7617 23.1578 23.0415 22.7618C22.6937 22.5554 22.3286 22.3797 21.9503 22.2367C22.3407 22.35 22.7188 22.5017 23.0793 22.6895C24.5935 23.4584 25.8844 24.8201 25.2366 27.1393C25.0479 27.8673 24.823 28.5953 24.9787 29.2557C25.1438 29.8846 25.7649 30.0812 26.3341 30.0529L26.7193 30.0324L26.4048 30.3469C26.0683 30.6614 24.463 32.2809 24.7318 32.7055C25.2035 33.1001 26.6391 32.8029 27.2885 32.6772L27.9395 32.5372C27.364 32.9775 25.7381 34.0891 25.6139 34.858C25.6674 35.4367 27.1328 35.2873 27.5699 35.2385L27.9143 35.1945C27.4347 35.6269 26.8136 36.1269 26.6831 36.8219C26.5935 37.421 27.0479 37.8094 27.4505 38.0012C26.7791 38.6301 26.963 39.3188 27.1973 39.9745C27.2873 40.1835 27.3256 40.4111 27.3089 40.638L27.3074 40.6317Z" fill="#C7C7C7"/>
<path d="M23.9864 29.4413C23.6816 29.7343 23.3944 30.0452 23.1263 30.3721C22.9156 30.6535 22.664 30.9586 22.6121 31.3155C22.5807 32.1489 23.6342 32.347 24.2065 32.424L24.3638 32.4398C24.1079 32.7462 23.885 33.0788 23.6986 33.4319C23.0272 34.6977 24.6971 34.5797 25.3433 34.5137L25.1767 34.7118C24.8701 35.0766 24.3449 35.8722 24.7804 36.1663C25.2018 36.3911 25.7647 36.3612 26.2632 36.3376H26.3669C26.0257 36.7197 25.8245 37.3235 26.0761 37.7198C26.1414 37.8399 26.2289 37.9466 26.3339 38.0342C25.8135 37.7103 25.7694 37.0012 26.227 36.3738L26.2537 36.4634C25.7396 36.5059 24.8622 36.6207 24.5241 36.1898C24.2663 35.6883 24.7065 35.0231 25.0509 34.5876L25.1028 34.7653C24.675 34.8276 24.2387 34.7933 23.826 34.6646C22.8496 34.314 23.5477 33.1803 24.1137 32.4791L24.1499 32.652C23.5037 32.5545 22.4077 32.2982 22.4785 31.3422C22.6074 30.6473 23.4895 29.8894 23.9785 29.4554L23.9864 29.4413Z" fill="#C7C7C7"/>
<path d="M29.2994 34.27C29.9284 32.3061 29.5887 30.152 28.8843 28.251C28.2003 26.5796 27.1154 25.1063 26.1044 23.6267C25.1342 22.2729 23.7333 20.3483 22.8103 18.9898C21.7757 17.4174 20.7017 15.8277 20.219 13.9849C20.3118 14.9283 20.6499 15.8545 21.0382 16.7271C21.8338 18.4693 22.8858 20.0763 23.955 21.6549C25.0242 23.2336 26.1563 24.7446 27.2003 26.3233C27.7324 27.0889 28.1835 27.9078 28.5463 28.7667C29.2428 30.4963 29.628 32.413 29.2994 34.27Z" fill="white"/>
<path d="M23.1627 36.5515C23.1627 36.5515 20.9504 30.435 26.8405 27.3044C32.7306 24.1738 36.2747 29.7636 36.2747 29.7636C36.2747 29.7636 31.4318 34.7165 23.1627 36.5515Z" fill="white"/>
<path d="M23.1642 36.5515C31.4316 34.7165 36.2729 29.7636 36.2729 29.7636C36.2729 29.7636 28.8168 31.0969 23.1642 36.5515Z" fill="white"/>
<path d="M27.4063 28.3988C27.3296 28.4408 27.2453 28.4671 27.1583 28.4764C27.0713 28.4857 26.9833 28.4777 26.8994 28.4529C26.8156 28.428 26.7374 28.3868 26.6695 28.3317C26.6016 28.2765 26.5453 28.2085 26.5038 28.1315L26.0525 27.2997C25.9686 27.1445 25.9496 26.9624 25.9997 26.7932C26.0498 26.624 26.1649 26.4816 26.3198 26.3971C26.475 26.3132 26.6571 26.2942 26.8263 26.3443C26.9955 26.3944 27.1379 26.5095 27.2224 26.6645L27.6736 27.4962C27.7576 27.6514 27.7766 27.8336 27.7265 28.0027C27.6764 28.1719 27.5612 28.3143 27.4063 28.3988Z" fill="white"/>
<path opacity="0.4" d="M27.4063 28.3988C27.3296 28.4408 27.2453 28.4671 27.1583 28.4764C27.0713 28.4857 26.9833 28.4777 26.8994 28.4529C26.8156 28.428 26.7374 28.3868 26.6695 28.3317C26.6016 28.2765 26.5453 28.2085 26.5038 28.1315L26.0525 27.2997C25.9686 27.1445 25.9496 26.9624 25.9997 26.7932C26.0498 26.624 26.1649 26.4816 26.3198 26.3971C26.475 26.3132 26.6571 26.2942 26.8263 26.3443C26.9955 26.3944 27.1379 26.5095 27.2224 26.6645L27.6736 27.4962C27.7576 27.6514 27.7766 27.8336 27.7265 28.0027C27.6764 28.1719 27.5612 28.3143 27.4063 28.3988Z" fill="white"/>
<path opacity="0.2" d="M23.1642 36.5515C31.4316 34.7165 36.2729 29.7636 36.2729 29.7636C36.2729 29.7636 28.8168 31.0969 23.1642 36.5515Z" fill="black"/>
<path d="M30.3647 34.8954L30.6249 34.7535C30.7463 34.6872 30.8365 34.5755 30.8756 34.4427C30.9146 34.31 30.8993 34.1672 30.833 34.0457L29.196 31.0445L28.0241 31.6837L29.6611 34.6849C29.7269 34.8057 29.8378 34.8956 29.9696 34.935C30.1014 34.9744 30.2434 34.9602 30.3647 34.8954Z" fill="white"/>
<path opacity="0.3" d="M30.3647 34.8954L30.6249 34.7535C30.7463 34.6872 30.8365 34.5755 30.8756 34.4427C30.9146 34.31 30.8993 34.1672 30.833 34.0457L29.196 31.0445L28.0241 31.6837L29.6611 34.6849C29.7269 34.8057 29.8378 34.8956 29.9696 34.935C30.1014 34.9744 30.2434 34.9602 30.3647 34.8954Z" fill="black"/>
<path d="M23.1642 36.5515C28.8168 31.0969 36.2729 29.7636 36.2729 29.7636C36.2729 29.7636 32.7288 24.1722 26.8388 27.3044C20.9487 30.4365 23.1642 36.5515 23.1642 36.5515Z" fill="white"/>
<path opacity="0.4" d="M23.1642 36.5515C28.8168 31.0969 36.2729 29.7636 36.2729 29.7636C36.2729 29.7636 32.7288 24.1722 26.8388 27.3044C20.9487 30.4365 23.1642 36.5515 23.1642 36.5515Z" fill="white"/>
<g opacity="0.3">
<path d="M28.2431 26.7006C30.5544 27.045 32.4397 29.1378 33.4523 30.5262C34.0561 30.3265 34.586 30.1724 35.0247 30.0545C31.9758 26.0182 28.4365 26.6613 28.2635 26.6959L28.2431 26.7006Z" fill="white"/>
<path d="M27.7305 26.8877C29.542 27.856 31.0878 29.2544 32.2321 30.9601C32.4193 30.8878 32.6032 30.8218 32.7825 30.7573C30.5466 27.7399 27.7305 26.8877 27.7305 26.8877Z" fill="white"/>
</g>
<path opacity="0.1" d="M23.1642 36.5499C25.68 34.1222 28.5605 32.5074 30.9741 31.4665C29.3782 32.1158 25.2366 33.6678 24.3277 32.8816C23.5416 32.2007 24.2743 29.4916 25.6438 28.0623C21.2695 31.3139 23.1642 36.5499 23.1642 36.5499Z" fill="black"/>
<path d="M54.6524 53.6273C54.0606 55.5757 53.0892 57.3878 51.7943 58.9593C50.4994 60.5308 48.9064 61.8306 47.1072 62.7841C45.3079 63.7375 43.3378 64.3256 41.3103 64.5146C39.2828 64.7037 37.238 64.4898 35.2935 63.8854L30.2776 62.3603L40.2653 33.13L43.5091 34.1096C43.7669 34.1735 44.0258 34.2453 44.2858 34.325C46.2375 34.9061 48.055 35.8674 49.6337 37.1536C51.2125 38.4398 52.5212 40.0255 53.4847 41.8195C54.4482 43.6135 55.0474 45.5804 55.2478 47.6068C55.4482 49.6333 55.2458 51.6794 54.6524 53.6273Z" fill="white"/>
<path opacity="0.2" d="M54.6524 53.6273C54.0606 55.5757 53.0892 57.3878 51.7943 58.9593C50.4994 60.5308 48.9064 61.8306 47.1072 62.7841C45.3079 63.7375 43.3378 64.3256 41.3103 64.5146C39.2828 64.7037 37.238 64.4898 35.2935 63.8854L30.2776 62.3603L40.2653 33.13L43.5091 34.1096C43.7669 34.1735 44.0258 34.2453 44.2858 34.325C46.2375 34.9061 48.055 35.8674 49.6337 37.1536C51.2125 38.4398 52.5212 40.0255 53.4847 41.8195C54.4482 43.6135 55.0474 45.5804 55.2478 47.6068C55.4482 49.6333 55.2458 51.6794 54.6524 53.6273Z" fill="black"/>
<g opacity="0.05">
<path d="M31.7917 57.9388L44.1411 63.9782C45.7024 63.5321 47.1834 62.8422 48.5295 61.9341L33.0182 54.3475L31.7917 57.9388Z" fill="black"/>
<path d="M33.3482 53.3726L49.4587 61.2517C49.7826 60.997 50.0971 60.7287 50.4021 60.4467L33.7193 52.2877L33.3482 53.3726Z" fill="black"/>
</g>
<path d="M30.4213 62.4187C23.0415 59.5829 19.5455 50.8134 22.6127 42.8313C25.6799 34.8493 34.1489 30.6774 41.5286 33.5132C48.9084 36.349 52.4044 45.1186 49.3372 53.1006C46.27 61.0826 37.801 65.2545 30.4213 62.4187Z" fill="white"/>
<path opacity="0.1" d="M29.6211 61.7943C22.7613 59.1597 19.5719 50.8492 22.4973 43.2322C25.4227 35.6152 33.3552 31.5762 40.215 34.2109C47.0748 36.8455 50.2642 45.156 47.3388 52.773C44.4134 60.3899 36.481 64.4289 29.6211 61.7943Z" fill="black"/>
<path d="M29.956 60.9209C23.5299 58.4528 20.5421 50.6677 23.2826 43.5322C26.0231 36.3968 33.454 32.6131 39.8801 35.0812C46.3062 37.5492 49.294 45.3344 46.5536 52.4698C43.8131 59.6052 36.3821 63.3889 29.956 60.9209Z" fill="white"/>
<path opacity="0.5" d="M24.0148 41.8991C28.3938 47.0879 35.5921 55.5991 39.6346 60.2957C41.4843 59.3416 43.1012 57.9921 44.3706 56.3428L32.8279 34.7008C29.1973 35.6332 25.9331 38.2323 24.0148 41.8991Z" fill="#EBEBEB"/>
<path opacity="0.5" d="M22.7726 45.1004C22.3776 46.5758 22.2116 48.103 22.2805 49.6288L34.9285 61.637C35.6579 61.5804 36.3805 61.4573 37.0874 61.269C33.4238 57.118 26.7224 49.5533 22.7726 45.1004Z" fill="#EBEBEB"/>
<path d="M38.3705 36.031L38.0041 37.2606L38.1174 37.2905L38.229 37.3235L38.5969 36.0939L38.3705 36.031Z" fill="#263238"/>
<path d="M42.4617 39.9918C42.5151 40.05 42.5686 40.1097 42.6189 40.1711L43.4932 39.2622L43.3359 39.083L42.4617 39.9918Z" fill="#263238"/>
<path d="M44.8991 44.8708C44.9163 44.9526 44.9321 45.0281 44.9478 45.1177L46.1003 44.7734L46.0516 44.5265L44.8991 44.8708Z" fill="#263238"/>
<path d="M44.6239 50.7106C44.6114 50.7531 44.5988 50.7939 44.5846 50.8348L45.6994 51.1493L45.7749 50.9009L44.6601 50.5864C44.6475 50.6273 44.6349 50.6697 44.6239 50.7106Z" fill="#263238"/>
<path d="M41.6346 55.794L42.4208 56.6777L42.5969 56.4937L41.8107 55.6101L41.6346 55.794Z" fill="#263238"/>
<path d="M36.8816 58.6621L37.1206 59.8806L37.3533 59.8115L37.1143 58.5913C37.0372 58.618 36.9602 58.64 36.8816 58.6621Z" fill="#263238"/>
<path d="M31.6047 58.6731L31.2368 59.9027L31.4617 59.9655L31.8296 58.736L31.7164 58.7045L31.6047 58.6731Z" fill="#263238"/>
<path d="M26.3373 56.7296L26.4946 56.9089L27.3704 56C27.3169 55.9419 27.2634 55.8821 27.2131 55.8224L26.3373 56.7296Z" fill="#263238"/>
<path d="M23.7381 51.22L23.7853 51.4669L24.9331 51.1226C24.9158 51.0408 24.9001 50.9653 24.8859 50.8757L23.7381 51.22Z" fill="#263238"/>
<path d="M24.1328 44.8457L24.0589 45.0941L25.1737 45.4086C25.1862 45.3662 25.1972 45.3253 25.2098 45.2844L25.2476 45.1602L24.1328 44.8457Z" fill="#263238"/>
<path d="M27.2319 39.4997L28.0181 40.3833C28.0763 40.3204 28.1345 40.2607 28.1958 40.1994L27.4096 39.3157L27.2319 39.4997Z" fill="#263238"/>
<path d="M32.479 36.1883L32.718 37.41C32.7966 37.3833 32.8752 37.3612 32.9507 37.3392L32.7117 36.1191L32.479 36.1883Z" fill="#263238"/>
<path d="M32.5828 36.7339L34.4979 49.058L35.6709 48.698L32.902 36.6348L32.5828 36.7339Z" fill="#37474F"/>
<path d="M41.3266 41.451L33.8909 48.1288L34.6833 49.0408L41.542 41.6978L41.3266 41.451Z" fill="#455A64"/>
<path d="M34.5277 47.8882C34.5092 47.9406 34.5012 47.9962 34.5043 48.0517C34.5074 48.1073 34.5215 48.1616 34.5458 48.2117C34.5701 48.2617 34.604 48.3064 34.6458 48.3432C34.6875 48.38 34.7361 48.4081 34.7887 48.426C34.8989 48.4504 35.0142 48.4314 35.1106 48.3728C35.2071 48.3142 35.2771 48.2205 35.306 48.1115C35.3248 48.0591 35.333 48.0034 35.33 47.9479C35.327 47.8923 35.3129 47.8378 35.2886 47.7877C35.2643 47.7377 35.2302 47.6929 35.1884 47.6562C35.1466 47.6194 35.0978 47.5914 35.045 47.5737C34.9349 47.5493 34.8195 47.5683 34.7231 47.6269C34.6267 47.6855 34.5567 47.7792 34.5277 47.8882Z" fill="#C7C7C7"/>
<path d="M34.7526 47.5659C34.6417 47.625 34.5559 47.722 34.5108 47.8393C34.4658 47.9566 34.4645 48.0861 34.5073 48.2043C34.5266 48.2595 34.5577 48.3098 34.5984 48.3518C34.6391 48.3939 34.6885 48.4265 34.743 48.4476C34.7976 48.4687 34.8561 48.4777 34.9145 48.4739C34.9729 48.4702 35.0298 48.4538 35.0812 48.426C35.1921 48.3669 35.2779 48.2698 35.3229 48.1525C35.368 48.0353 35.3693 47.9057 35.3265 47.7876C35.3071 47.7324 35.2761 47.682 35.2353 47.64C35.1946 47.598 35.1453 47.5653 35.0907 47.5442C35.0361 47.5231 34.9776 47.5141 34.9193 47.5179C34.8609 47.5216 34.804 47.538 34.7526 47.5659Z" fill="white"/>
<path d="M34.8469 47.8127L26.6737 52.0974L26.7225 52.2248L34.9868 48.1807L34.8469 47.8127Z" fill="white"/>
<path d="M52.3301 38.1307L51.4034 36.8996L49.3482 38.4466C49.2379 38.5296 49.1651 38.653 49.1458 38.7897C49.1265 38.9264 49.1623 39.0651 49.2453 39.1754L49.5461 39.5749C49.6291 39.6852 49.7525 39.758 49.8892 39.7773C50.0258 39.7965 50.1646 39.7607 50.2749 39.6777L52.3301 38.1307Z" fill="white"/>
<path opacity="0.3" d="M52.3301 38.1307L51.4034 36.8996L49.3482 38.4466C49.2379 38.5296 49.1651 38.653 49.1458 38.7897C49.1265 38.9264 49.1623 39.0651 49.2453 39.1754L49.5461 39.5749C49.6291 39.6852 49.7525 39.758 49.8892 39.7773C50.0258 39.7965 50.1646 39.7607 50.2749 39.6777L52.3301 38.1307Z" fill="black"/>
<path d="M56.4118 44.679C56.4118 44.679 61.684 39.3031 56.9873 33.1756C52.2907 27.0481 45.8723 31.229 45.8723 31.229C45.8723 31.229 49.5705 39.1757 56.4118 44.679Z" fill="white"/>
<path opacity="0.4" d="M56.4118 44.679C56.4118 44.679 61.684 39.3031 56.9873 33.1756C52.2907 27.0481 45.8723 31.229 45.8723 31.229C45.8723 31.229 49.5705 39.1757 56.4118 44.679Z" fill="white"/>
<g opacity="0.3">
<path d="M54.0485 42.5799C54.4668 42.9887 54.9007 43.3944 55.3504 43.7891C59.503 38.465 57.6508 34.1976 57.58 34.0404C57.7215 37.5735 55.2089 41.1318 54.0485 42.5799Z" fill="white"/>
<path d="M52.9871 41.4934C53.1443 41.6695 53.3188 41.8441 53.4902 42.0217C53.5185 41.9871 53.5468 41.951 53.5767 41.9164C56.9117 37.8534 57.2356 33.52 57.2356 33.52C56.2214 37.7166 54.0468 40.3896 52.9871 41.4934Z" fill="white"/>
</g>
<path opacity="0.1" d="M45.8707 31.2369C47.4795 34.4575 49.4789 37.4676 51.8237 40.1994C49.6051 37.1773 47.9368 33.413 48.4101 32.0136C48.6412 31.3265 49.5327 30.0498 53.3992 30.3438C49.5595 28.8296 45.8707 31.2369 45.8707 31.2369Z" fill="black"/>
<path d="M57.9407 32.433L58.0032 32.5159C58.2418 32.833 58.1783 33.2835 57.8612 33.5222L56.9027 34.2437C56.5856 34.4823 56.1351 34.4188 55.8964 34.1017L55.834 34.0188C55.5954 33.7017 55.6589 33.2512 55.976 33.0126L56.9345 32.2911C57.2516 32.0524 57.7021 32.1159 57.9407 32.433Z" fill="white"/>
<path opacity="0.4" d="M57.9407 32.433L58.0032 32.5159C58.2418 32.833 58.1783 33.2835 57.8612 33.5222L56.9027 34.2437C56.5856 34.4823 56.1351 34.4188 55.8964 34.1017L55.834 34.0188C55.5954 33.7017 55.6589 33.2512 55.976 33.0126L56.9345 32.2911C57.2516 32.0524 57.7021 32.1159 57.9407 32.433Z" fill="white"/>
<path d="M51.0768 52.011C51.0768 52.011 51.3583 50.9795 51.9558 48.8898C52.5218 46.9118 54.0171 41.8142 55.8112 39.888C60.5283 34.8266 70.8902 34.825 78.3589 30.9256C82.447 28.7903 82.5587 27.5025 83.7191 27.7887C84.8795 28.0749 83.1169 34.6599 76.079 37.2528C76.079 37.2528 79.5004 38.5924 79.3809 39.5154C79.2614 40.4384 76.1859 40.8393 74.1292 40.517C74.1292 40.517 77.2488 43.5045 76.5538 44.6051C75.8588 45.7058 71.9845 44.7797 70.4373 44.0705C70.4373 44.0705 72.1669 46.1492 71.4562 46.9008C70.3556 48.0643 66.824 46.1712 66.824 46.1712C66.824 46.1712 67.8759 47.5863 67.1558 48.0219C66.1747 48.6115 63.2831 47.2719 63.2831 47.2719C63.2831 47.2719 62.4544 49.8568 58.6383 48.3018C58.6383 48.3018 57.709 50.2263 54.9134 48.8128C54.9134 48.8128 53.591 49.492 53.0816 50.3851C52.5721 51.2782 51.58 52.1493 51.0768 52.011Z" fill="#EBEBEB"/>
<path d="M52.1822 49.264C52.3221 49.0329 52.5863 48.9228 52.8111 48.7923C53.558 48.4244 54.3363 47.8851 54.0941 46.9322L54.0045 47.0281C55.1665 47.2263 56.1744 46.6916 56.0329 45.4039C55.9976 45.071 55.9237 44.7433 55.8127 44.4274L55.5958 44.5847C58.731 46.8237 59.5267 45.4935 57.9763 42.3425L57.6917 42.5689C60.8726 45.102 62.3821 45.113 60.9937 40.6711L60.7122 40.8896C60.9666 41.0418 61.2399 41.1597 61.5251 41.2403C63.3365 41.7544 64.1007 40.2544 64.5802 38.8125C64.7438 38.2997 65.0236 37.8315 65.3978 37.4445C65.772 37.0575 66.2305 36.7621 66.7375 36.5814C67.7674 36.2071 68.8948 36.1442 69.9845 36.215C70.5368 36.252 71.0861 36.3244 71.6292 36.432C71.0921 36.2893 70.5449 36.1878 69.9923 36.1285C67.6809 35.8644 65.2045 36.2574 64.2878 38.6946C63.9733 39.4525 63.7217 40.2308 63.0645 40.7135C62.4198 41.1632 61.555 40.9494 60.9166 40.5704L60.4842 40.3141L60.6415 40.7859C60.7987 41.278 61.5031 43.69 60.8899 43.8928C60.0628 43.9494 58.6068 42.7922 57.9402 42.2796L57.286 41.7513C57.6367 42.495 58.7248 44.4809 58.3159 45.2325C57.8442 45.7042 56.2451 44.6664 55.7734 44.3535L55.4055 44.1004C55.6492 44.7781 56.0109 45.6036 55.6634 46.2938C55.3363 46.874 54.5281 46.9338 53.9243 46.8536C54.2545 47.8175 53.5422 48.3128 52.7985 48.7404C52.5784 48.8835 52.3268 49.0125 52.1916 49.2515L52.1822 49.264Z" fill="#C7C7C7"/>
<path d="M64.0865 41.5028C64.2293 41.9449 64.3391 42.3968 64.4152 42.8551C64.4576 43.2324 64.5299 43.657 64.3365 43.9982C63.7752 44.7482 62.4088 44.2686 61.6887 43.9809L61.4921 43.896C61.5687 44.3197 61.5882 44.7517 61.5503 45.1806C61.4214 46.7089 59.5676 45.569 58.8647 45.1083L58.915 45.3866C59.0094 45.896 59.0455 46.9212 58.3285 46.9071C57.6776 46.8442 57.0471 46.4684 56.4842 46.1382L56.3678 46.0674C56.4904 46.6162 56.2892 47.2703 55.7121 47.4637C55.545 47.5252 55.3695 47.5613 55.1917 47.5706C56.0282 47.6115 56.5895 47.014 56.5109 46.1806L56.415 46.2419C56.981 46.5989 57.9229 47.2388 58.6163 47.0722C59.2782 46.7923 59.2452 45.9338 59.1587 45.3426L58.9701 45.4668C59.4398 45.7957 59.9666 46.0346 60.5236 46.1712C61.9088 46.4715 61.9167 45.0422 61.7626 44.0737L61.5959 44.2042C62.4151 44.5186 63.8727 44.9762 64.4781 44.0925C64.8287 43.4023 64.3491 42.1884 64.0913 41.5076L64.0865 41.5028Z" fill="#C7C7C7"/>
<path opacity="0.1" d="M51.0768 52.0094C51.5799 52.1493 52.5768 51.2877 53.0878 50.3914C53.5988 49.4952 54.9196 48.8191 54.9196 48.8191C57.7153 50.2342 58.6445 48.308 58.6445 48.308C62.4607 49.8631 63.2893 47.2781 63.2893 47.2781C61.6493 48.8332 58.6461 47.6036 58.6461 47.6036C56.8363 49.4574 54.929 48.275 54.929 48.275C54.5186 48.334 54.1047 48.3655 53.69 48.3694C53.1601 48.3615 54.0847 45.3599 54.918 43.0799C55.7042 40.9258 58.632 37.726 59.9606 37.0483H59.948C58.3316 37.7936 56.9181 38.7025 55.8127 39.888C54.0171 41.8126 52.5202 46.9134 51.9557 48.8898C51.3582 50.9795 51.0768 52.0094 51.0768 52.0094Z" fill="black"/>
<path d="M75.8085 36.7401C78.8887 35.7763 81.8243 33.586 83.1184 30.5592C83.3324 30.0538 83.4906 29.5266 83.5901 28.9868C83.6233 28.8638 83.6233 28.7341 83.5901 28.611C83.4722 28.3327 83.142 28.5261 82.98 28.6488C82.7611 28.8102 82.5512 28.9834 82.3511 29.1676C82.5917 29.045 82.8228 28.9098 83.0665 28.7997C83.1631 28.746 83.2706 28.7149 83.381 28.7085C83.381 28.7085 83.348 28.6912 83.3511 28.6928C83.3407 28.7679 83.3206 28.8414 83.2914 28.9113C82.0948 32.4743 78.9626 34.8989 75.8085 36.7401Z" fill="white"/>
<path d="M78.7644 39.0468C78.1166 39.5185 77.2549 39.5059 76.486 39.6207C75.7565 39.7009 74.7454 39.7606 74.0363 39.9352C75.2539 40.3882 76.5943 40.3854 77.81 39.9273C78.1952 39.7433 78.6512 39.4839 78.7628 39.0405L78.7644 39.0468Z" fill="white"/>
<path d="M74.0255 41.2198C74.3014 41.7974 74.6388 42.3436 75.0318 42.8488C75.362 43.3519 75.8463 43.7796 75.947 44.3928C76.1812 44.1161 76.1121 43.6837 76.013 43.3645C75.8394 42.8937 75.5744 42.4619 75.2333 42.0938C74.8922 41.7258 74.4818 41.4287 74.0255 41.2198Z" fill="white"/>
<path d="M64.0251 37.4666C63.6409 37.9763 63.313 38.5262 63.0471 39.1066C62.7531 39.6317 62.5943 40.2575 62.1037 40.6286C62.4575 40.7104 62.8097 40.4494 63.0471 40.2151C63.7246 39.4648 64.0763 38.4762 64.0251 37.4666Z" fill="white"/>
<path d="M56.8425 4.2027L59.1198 6.95865C61.1567 9.42358 64.5381 10.316 67.5261 9.17734L70.8669 7.90419L68.1109 10.1816C65.646 12.2185 64.7535 15.5998 65.8923 18.5878L67.1654 21.9286L64.888 19.1727C62.8511 16.7077 59.4697 15.8153 56.4817 16.954L53.141 18.2271L55.8969 15.9498C58.3618 13.9129 59.2543 10.5315 58.1156 7.54348L56.8425 4.2027Z" fill="#D9D6FE"/>
</g>
<defs>
<clipPath id="clip0_10131_11">
<rect width="78.6182" height="78.6182" fill="white" transform="matrix(-1 0 0 1 94 0)"/>
</clipPath>
</defs>
</svg>
