<svg width="16" height="16" viewBox="0 0 16 16" fill="none" xmlns="http://www.w3.org/2000/svg">
<path d="M11.1667 2.37337V1.33337C11.1667 1.06004 10.94 0.833374 10.6667 0.833374C10.3933 0.833374 10.1667 1.06004 10.1667 1.33337V2.33337H5.83332V1.33337C5.83332 1.06004 5.60666 0.833374 5.33332 0.833374C5.05999 0.833374 4.83332 1.06004 4.83332 1.33337V2.37337C3.03332 2.54004 2.15999 3.61337 2.02666 5.20671C2.01332 5.40004 2.17332 5.56004 2.35999 5.56004H13.64C13.8333 5.56004 13.9933 5.39337 13.9733 5.20671C13.84 3.61337 12.9667 2.54004 11.1667 2.37337Z" fill="#D0D5DD"/>
<path d="M13.3333 6.55994H2.66667C2.3 6.55994 2 6.85994 2 7.2266V11.3333C2 13.3333 3 14.6666 5.33333 14.6666H10.6667C13 14.6666 14 13.3333 14 11.3333V7.2266C14 6.85994 13.7 6.55994 13.3333 6.55994ZM6.14 12.1399C6.07333 12.1999 6 12.2466 5.92 12.2799C5.84 12.3133 5.75333 12.3333 5.66667 12.3333C5.58 12.3333 5.49333 12.3133 5.41333 12.2799C5.33333 12.2466 5.26 12.1999 5.19333 12.1399C5.07333 12.0133 5 11.8399 5 11.6666C5 11.4933 5.07333 11.3199 5.19333 11.1933C5.26 11.1333 5.33333 11.0866 5.41333 11.0533C5.57333 10.9866 5.76 10.9866 5.92 11.0533C6 11.0866 6.07333 11.1333 6.14 11.1933C6.26 11.3199 6.33333 11.4933 6.33333 11.6666C6.33333 11.8399 6.26 12.0133 6.14 12.1399ZM6.28 9.5866C6.24667 9.6666 6.2 9.73994 6.14 9.8066C6.07333 9.8666 6 9.91327 5.92 9.9466C5.84 9.97994 5.75333 9.99994 5.66667 9.99994C5.58 9.99994 5.49333 9.97994 5.41333 9.9466C5.33333 9.91327 5.26 9.8666 5.19333 9.8066C5.13333 9.73994 5.08667 9.6666 5.05333 9.5866C5.02 9.5066 5 9.41994 5 9.33327C5 9.2466 5.02 9.15994 5.05333 9.07994C5.08667 8.99994 5.13333 8.9266 5.19333 8.85994C5.26 8.79994 5.33333 8.75327 5.41333 8.71994C5.57333 8.65327 5.76 8.65327 5.92 8.71994C6 8.75327 6.07333 8.79994 6.14 8.85994C6.2 8.9266 6.24667 8.99994 6.28 9.07994C6.31333 9.15994 6.33333 9.2466 6.33333 9.33327C6.33333 9.41994 6.31333 9.5066 6.28 9.5866ZM8.47333 9.8066C8.40667 9.8666 8.33333 9.91327 8.25333 9.9466C8.17333 9.97994 8.08667 9.99994 8 9.99994C7.91333 9.99994 7.82667 9.97994 7.74667 9.9466C7.66667 9.91327 7.59333 9.8666 7.52667 9.8066C7.40667 9.67994 7.33333 9.5066 7.33333 9.33327C7.33333 9.15994 7.40667 8.9866 7.52667 8.85994C7.59333 8.79994 7.66667 8.75327 7.74667 8.71994C7.90667 8.6466 8.09333 8.6466 8.25333 8.71994C8.33333 8.75327 8.40667 8.79994 8.47333 8.85994C8.59333 8.9866 8.66667 9.15994 8.66667 9.33327C8.66667 9.5066 8.59333 9.67994 8.47333 9.8066Z" fill="#D0D5DD"/>
</svg>
