<svg width="16" height="16" viewBox="0 0 16 16" fill="none" xmlns="http://www.w3.org/2000/svg">
<path d="M7.99992 1.33331C4.31992 1.33331 1.33325 4.31998 1.33325 7.99998C1.33325 11.68 4.31992 14.6666 7.99992 14.6666C11.6799 14.6666 14.6666 11.68 14.6666 7.99998C14.6666 4.31998 11.6799 1.33331 7.99992 1.33331ZM5.68659 8.97998C5.87992 9.17331 5.87992 9.49331 5.68659 9.68665C5.58659 9.78665 5.45992 9.83331 5.33325 9.83331C5.20659 9.83331 5.07992 9.78665 4.97992 9.68665L3.64659 8.35331C3.45325 8.15998 3.45325 7.83998 3.64659 7.64665L4.97992 6.31331C5.17325 6.11998 5.49325 6.11998 5.68659 6.31331C5.87992 6.50665 5.87992 6.82665 5.68659 7.01998L4.70659 7.99998L5.68659 8.97998ZM9.12659 6.63998L7.79325 9.75331C7.71325 9.93998 7.52659 10.0533 7.33325 10.0533C7.26659 10.0533 7.19992 10.04 7.13992 10.0133C6.88659 9.90665 6.76659 9.61331 6.87992 9.35331L8.21325 6.23998C8.31992 5.98665 8.61325 5.86665 8.86659 5.97998C9.11992 6.09331 9.23325 6.38665 9.12659 6.63998ZM12.3533 8.35331L11.0199 9.68665C10.9199 9.78665 10.7933 9.83331 10.6666 9.83331C10.5399 9.83331 10.4133 9.78665 10.3133 9.68665C10.1199 9.49331 10.1199 9.17331 10.3133 8.97998L11.2933 7.99998L10.3133 7.01998C10.1199 6.82665 10.1199 6.50665 10.3133 6.31331C10.5066 6.11998 10.8266 6.11998 11.0199 6.31331L12.3533 7.64665C12.5466 7.83998 12.5466 8.15998 12.3533 8.35331Z" fill="#7A5AF8"/>
</svg>
