<svg width="16" height="16" viewBox="0 0 16 16" fill="none" xmlns="http://www.w3.org/2000/svg">
<path d="M8.00016 1.33331C4.32683 1.33331 1.3335 4.32665 1.3335 7.99998C1.3335 11.6733 4.32683 14.6666 8.00016 14.6666C11.6735 14.6666 14.6668 11.6733 14.6668 7.99998C14.6668 4.32665 11.6735 1.33331 8.00016 1.33331ZM10.9002 10.38C10.8068 10.54 10.6402 10.6266 10.4668 10.6266C10.3802 10.6266 10.2935 10.6066 10.2135 10.5533L8.14683 9.31998C7.6335 9.01331 7.2535 8.33998 7.2535 7.74665V5.01331C7.2535 4.73998 7.48016 4.51331 7.7535 4.51331C8.02683 4.51331 8.2535 4.73998 8.2535 5.01331V7.74665C8.2535 7.98665 8.4535 8.33998 8.66016 8.45998L10.7268 9.69331C10.9668 9.83331 11.0468 10.14 10.9002 10.38Z" fill="#D0D5DD"/>
</svg>
