<svg width="122" height="82" viewBox="0 0 122 82" fill="none" xmlns="http://www.w3.org/2000/svg">
<rect width="39.3333" height="40" rx="4" fill="#EBE9FE"/>
<rect x="41.3335" width="39.3333" height="40" rx="4" fill="#EBE9FE"/>
<rect x="82.6665" width="39.3333" height="40" rx="4" fill="#EBE9FE"/>
<path d="M102 20.0001C104.301 20.0001 106.167 18.1346 106.167 15.8334C106.167 13.5322 104.301 11.6667 102 11.6667C99.699 11.6667 97.8335 13.5322 97.8335 15.8334C97.8335 18.1346 99.699 20.0001 102 20.0001Z" fill="#D9D6FE"/>
<path d="M102 22.0833C97.8248 22.0833 94.4248 24.8833 94.4248 28.3333C94.4248 28.5666 94.6081 28.7499 94.8415 28.7499H109.158C109.391 28.7499 109.575 28.5666 109.575 28.3333C109.575 24.8833 106.175 22.0833 102 22.0833Z" fill="#D9D6FE"/>
<path d="M61.0002 20.0001C63.3013 20.0001 65.1668 18.1346 65.1668 15.8334C65.1668 13.5322 63.3013 11.6667 61.0002 11.6667C58.699 11.6667 56.8335 13.5322 56.8335 15.8334C56.8335 18.1346 58.699 20.0001 61.0002 20.0001Z" fill="#D9D6FE"/>
<path d="M60.9998 22.0833C56.8248 22.0833 53.4248 24.8833 53.4248 28.3333C53.4248 28.5666 53.6081 28.7499 53.8415 28.7499H68.1581C68.3915 28.7499 68.5748 28.5666 68.5748 28.3333C68.5748 24.8833 65.1748 22.0833 60.9998 22.0833Z" fill="#D9D6FE"/>
<path d="M20.0002 20.0001C22.3013 20.0001 24.1668 18.1346 24.1668 15.8334C24.1668 13.5322 22.3013 11.6667 20.0002 11.6667C17.699 11.6667 15.8335 13.5322 15.8335 15.8334C15.8335 18.1346 17.699 20.0001 20.0002 20.0001Z" fill="#D9D6FE"/>
<path d="M19.9998 22.0833C15.8248 22.0833 12.4248 24.8833 12.4248 28.3333C12.4248 28.5666 12.6081 28.7499 12.8415 28.7499H27.1581C27.3915 28.7499 27.5748 28.5666 27.5748 28.3333C27.5748 24.8833 24.1748 22.0833 19.9998 22.0833Z" fill="#D9D6FE"/>
<rect y="42" width="39.3333" height="40" rx="4" fill="#EBE9FE"/>
<rect x="41.3335" y="42" width="39.3333" height="40" rx="4" fill="#EBE9FE"/>
<rect x="82.6665" y="42" width="39.3333" height="40" rx="4" fill="#EBE9FE"/>
<path d="M61.0002 62.0001C63.3013 62.0001 65.1668 60.1346 65.1668 57.8334C65.1668 55.5322 63.3013 53.6667 61.0002 53.6667C58.699 53.6667 56.8335 55.5322 56.8335 57.8334C56.8335 60.1346 58.699 62.0001 61.0002 62.0001Z" fill="#D9D6FE"/>
<path d="M60.9998 64.0833C56.8248 64.0833 53.4248 66.8833 53.4248 70.3333C53.4248 70.5666 53.6081 70.7499 53.8415 70.7499H68.1581C68.3915 70.7499 68.5748 70.5666 68.5748 70.3333C68.5748 66.8833 65.1748 64.0833 60.9998 64.0833Z" fill="#D9D6FE"/>
<path d="M102 62.0001C104.301 62.0001 106.167 60.1346 106.167 57.8334C106.167 55.5322 104.301 53.6667 102 53.6667C99.699 53.6667 97.8335 55.5322 97.8335 57.8334C97.8335 60.1346 99.699 62.0001 102 62.0001Z" fill="#D9D6FE"/>
<path d="M102 64.0833C97.8248 64.0833 94.4248 66.8833 94.4248 70.3333C94.4248 70.5666 94.6081 70.7499 94.8415 70.7499H109.158C109.391 70.7499 109.575 70.5666 109.575 70.3333C109.575 66.8833 106.175 64.0833 102 64.0833Z" fill="#D9D6FE"/>
<path d="M20.0002 62.0001C22.3013 62.0001 24.1668 60.1346 24.1668 57.8334C24.1668 55.5322 22.3013 53.6667 20.0002 53.6667C17.699 53.6667 15.8335 55.5322 15.8335 57.8334C15.8335 60.1346 17.699 62.0001 20.0002 62.0001Z" fill="#D9D6FE"/>
<path d="M19.9998 64.0833C15.8248 64.0833 12.4248 66.8833 12.4248 70.3333C12.4248 70.5666 12.6081 70.7499 12.8415 70.7499H27.1581C27.3915 70.7499 27.5748 70.5666 27.5748 70.3333C27.5748 66.8833 24.1748 64.0833 19.9998 64.0833Z" fill="#D9D6FE"/>
</svg>
