<svg width="16" height="16" viewBox="0 0 16 16" fill="none" xmlns="http://www.w3.org/2000/svg">
<path d="M11.3335 1.33325H4.66683C2.82683 1.33325 1.3335 2.81992 1.3335 4.65325V8.63992V9.30659C1.3335 11.1399 2.82683 12.6266 4.66683 12.6266H5.66683C5.84683 12.6266 6.08683 12.7466 6.20016 12.8933L7.20016 14.2199C7.64016 14.8066 8.36016 14.8066 8.80016 14.2199L9.80016 12.8933C9.92683 12.7266 10.1268 12.6266 10.3335 12.6266H11.3335C13.1735 12.6266 14.6668 11.1399 14.6668 9.30659V4.65325C14.6668 2.81992 13.1735 1.33325 11.3335 1.33325ZM5.3335 7.99992C4.96016 7.99992 4.66683 7.69992 4.66683 7.33325C4.66683 6.96659 4.96683 6.66659 5.3335 6.66659C5.70016 6.66659 6.00016 6.96659 6.00016 7.33325C6.00016 7.69992 5.70683 7.99992 5.3335 7.99992ZM8.00016 7.99992C7.62683 7.99992 7.3335 7.69992 7.3335 7.33325C7.3335 6.96659 7.6335 6.66659 8.00016 6.66659C8.36683 6.66659 8.66683 6.96659 8.66683 7.33325C8.66683 7.69992 8.3735 7.99992 8.00016 7.99992ZM10.6668 7.99992C10.2935 7.99992 10.0002 7.69992 10.0002 7.33325C10.0002 6.96659 10.3002 6.66659 10.6668 6.66659C11.0335 6.66659 11.3335 6.96659 11.3335 7.33325C11.3335 7.69992 11.0402 7.99992 10.6668 7.99992Z" fill="#D0D5DD"/>
</svg>
