<svg width="18" height="19" viewBox="0 0 18 19" fill="none" xmlns="http://www.w3.org/2000/svg">
<path d="M8.12484 10.0833L6.9165 8.89583C6.76373 8.74306 6.57289 8.66667 6.344 8.66667C6.11512 8.66667 5.91706 8.75 5.74984 8.91667C5.59706 9.06945 5.52067 9.26389 5.52067 9.5C5.52067 9.73611 5.59706 9.93056 5.74984 10.0833L7.5415 11.875C7.70817 12.0417 7.90262 12.125 8.12484 12.125C8.34706 12.125 8.5415 12.0417 8.70817 11.875L12.2498 8.33334C12.4165 8.16667 12.4962 7.97222 12.489 7.75C12.4818 7.52778 12.4021 7.33333 12.2498 7.16667C12.0832 7 11.8854 6.91333 11.6565 6.90667C11.4276 6.9 11.2296 6.97972 11.0623 7.14584L8.12484 10.0833ZM5.7915 17.625L4.58317 15.5833L2.2915 15.0833C2.08317 15.0417 1.9165 14.9342 1.7915 14.7608C1.6665 14.5875 1.61789 14.3964 1.64567 14.1875L1.87484 11.8333L0.312337 10.0417C0.173448 9.88889 0.104004 9.70833 0.104004 9.5C0.104004 9.29167 0.173448 9.11111 0.312337 8.95834L1.87484 7.16667L1.64567 4.8125C1.61789 4.60417 1.6665 4.41306 1.7915 4.23917C1.9165 4.06528 2.08317 3.95778 2.2915 3.91667L4.58317 3.41667L5.7915 1.375C5.90262 1.19445 6.05539 1.07278 6.24984 1.01C6.44428 0.947224 6.63873 0.95778 6.83317 1.04167L8.99984 1.95834L11.1665 1.04167C11.3609 0.958336 11.5554 0.94778 11.7498 1.01C11.9443 1.07222 12.0971 1.19389 12.2082 1.375L13.4165 3.41667L15.7082 3.91667C15.9165 3.95834 16.0832 4.06611 16.2082 4.24C16.3332 4.41389 16.3818 4.60472 16.354 4.8125L16.1248 7.16667L17.6873 8.95834C17.8262 9.11111 17.8957 9.29167 17.8957 9.5C17.8957 9.70833 17.8262 9.88889 17.6873 10.0417L16.1248 11.8333L16.354 14.1875C16.3818 14.3958 16.3332 14.5869 16.2082 14.7608C16.0832 14.9347 15.9165 15.0422 15.7082 15.0833L13.4165 15.5833L12.2082 17.625C12.0971 17.8056 11.9443 17.9272 11.7498 17.99C11.5554 18.0528 11.3609 18.0422 11.1665 17.9583L8.99984 17.0417L6.83317 17.9583C6.63873 18.0417 6.44428 18.0522 6.24984 17.99C6.05539 17.9278 5.90262 17.8061 5.7915 17.625Z" fill="#675AFF"/>
</svg>
